<?xml version="1.0" standalone="no"?>
<!DOCTYPE svg PUBLIC "-//W3C//DTD SVG 20010904//EN"
 "http://www.w3.org/TR/2001/REC-SVG-20010904/DTD/svg10.dtd">
<svg version="1.0" xmlns="http://www.w3.org/2000/svg"
 width="512.000000pt" height="512.000000pt" viewBox="0 0 512.000000 512.000000"
 preserveAspectRatio="xMidYMid meet">
<metadata>
Created by potrace 1.14, written by Peter Selinger 2001-2017
</metadata>
<g transform="translate(0.000000,512.000000) scale(0.100000,-0.100000)"
fill="#000000" stroke="none">
<path d="M929 4413 c-12 -3 -15 -16 -15 -58 1 -29 3 -53 6 -52 22 5 179 -17
223 -31 104 -35 147 -91 169 -224 13 -81 18 -2926 5 -3073 -20 -226 -76 -283
-307 -309 -25 -3 -56 -5 -70 -5 -23 -1 -25 -4 -26 -56 l0 -55 155 7 c140 6
522 6 1556 0 382 -2 511 7 695 53 25 6 52 12 60 14 110 27 290 96 321 122 8 8
21 14 28 14 21 0 161 100 228 164 74 69 137 153 181 241 29 59 68 172 77 224
33 200 21 357 -38 506 -41 104 -129 235 -192 286 -11 9 -31 27 -45 39 -129
114 -349 223 -557 276 -104 26 -116 29 -208 44 -33 5 -70 12 -82 14 -12 3 -53
7 -90 11 -87 8 -136 15 -141 19 -2 2 39 14 90 25 226 52 409 126 558 227 221
149 350 317 414 536 33 114 34 255 2 373 -2 6 -6 24 -11 40 -4 17 -12 36 -18
43 -5 6 -6 12 -2 12 3 0 -3 12 -14 26 -12 15 -21 31 -21 37 0 18 -73 112 -133
170 -66 64 -206 161 -258 179 -19 6 -39 15 -45 19 -31 24 -263 89 -369 104
-27 3 -61 8 -75 10 -91 14 -226 19 -515 18 -181 -1 -485 -2 -675 -2 -305 -1
-750 6 -820 13 -14 1 -32 0 -41 -1z m1761 -129 c111 -31 207 -106 263 -205 27
-48 74 -181 83 -234 64 -396 16 -803 -120 -1008 -65 -98 -161 -172 -269 -207
-60 -19 -81 -21 -274 -27 l-181 -5 0 668 c1 368 5 707 10 752 10 95 40 183 71
214 34 31 105 59 172 65 33 3 61 7 63 8 8 7 132 -7 182 -21z m-65 -1788 c17
-3 44 -8 60 -10 100 -14 231 -59 309 -107 169 -104 282 -297 321 -549 16 -101
12 -361 -7 -470 -21 -118 -51 -233 -73 -276 -7 -16 -19 -40 -24 -54 -50 -117
-194 -253 -320 -300 -170 -65 -440 -73 -563 -17 -50 23 -91 75 -108 137 -23
85 -27 229 -28 922 l0 738 201 -4 c111 -2 216 -7 232 -10z"/>
</g>
</svg>
